<?xml version="1.0" encoding="utf-8"?>
<!-- Generator: Adobe Illustrator 16.0.0, SVG Export Plug-In . SVG Version: 6.00 Build 0)  -->
<!DOCTYPE svg PUBLIC "-//W3C//DTD SVG 1.1//EN" "http://www.w3.org/Graphics/SVG/1.1/DTD/svg11.dtd">
<svg version="1.1" id="Layer_1" xmlns="http://www.w3.org/2000/svg" xmlns:xlink="http://www.w3.org/1999/xlink" x="0px" y="0px"
	 width="32px" height="32px" viewBox="0 0 32 32" enable-background="new 0 0 32 32" xml:space="preserve">
<path stroke="#000000" stroke-width="0.25" stroke-miterlimit="10" d="M28.284,14.138c0.237-0.487,0.139-2.503-0.055-3.336
	c-0.195-0.833-1.388-2.488-1.486-3.03c0.335,0.445,0.89,0.347,1.556,0.306c-0.459,0.027-0.527-0.333-0.61-0.569
	c0.958,0.111,0.916-0.154,1.638-0.708c-2.639,0.473-3.571-3.475-3.571-3.475c-1.5,3.335-3.46,3.919-4.419,4.127
	c-0.958,0.208-1.958-0.583-2.126-0.583c-0.165,0-0.624,0.667-1.168,0.542c-0.541-0.126-1.458-1.421-1.458-1.421s-1.793,0-2.502,0
	c-0.25,0.373-1.542,1.421-2,1.421c-0.459,0-0.834-0.542-0.834-0.542s-0.25,0.292-0.668,0.75c-0.416,0.458-2.75,0-2.75,0l-2.377-3.46
	c0,0-0.042,1.069-0.153,2.002c-0.833,0.765-1.542,3.501-1.529,4.543c0.181-0.403,0.5-0.333,0.626-0.098
	c-0.39,0.264-1.14,1.975-1.571,3.169c0.611-0.806,0.875-0.612,1.154-0.514c-1.042,1.083-1.015,2.501-0.889,2.182
	c0.125-0.32,0.361-0.098,0.583-0.208c-0.945,1.652-0.557,1.277-0.723,2.556c0.194-0.291,0.556-0.306,0.985-0.375
	c-1.709,1.292-1.277,2.239-1,3.293c-0.07-1.292,0.625-1.222,0.973-1.362c-0.069,0.309-0.348,1.294-0.431,2.295
	S4.27,23.74,4.02,23.226c-0.251-0.515,0.055-0.694,0.223-0.847c0.389,0.375,0.653,0.668,0.403,0.916
	c-0.315,1.68,1.807,3.023,1.978,3.135c-0.063-0.062,0.052-0.396-0.241-1.342c0-2.016,1.432-1.279,1.348-0.652
	c-0.083,0.625,0.125,1.043,0.5,1.225c-0.152-0.168-0.25-0.42,0.237-0.655c1.655,1.084-0.028,2.433-0.806,2.795
	c2.099,0.346,3.113-1.072,3.447-2.072c0.056,0.654,1.085,1.184,1.932,1.6c-1.069-1-0.348-1.585-0.07-1.726
	c0.156,1.697,1.463,2.169,2.795,2.92c-0.542-0.348-0.354-0.523-0.39-1c0.652,1.152,2.875,0.557,4.515,0
	c-2.848-0.585-2.751-1.321-2.863-2.473c0.651-2.405,1.934-1.85,2.71-1.879c0.237,0.515-0.151,0.891-1.055,1.266
	c0.776,0.237,1.542-0.542,1.888-0.861c0.599,1.46-1.221,1.918-2.694,2.195c3.474,0.251,3.529-0.709,3.836-0.917
	c-0.07,0.372-0.046,0.854,0.271,1.312c-0.59-1.093,1.431-2.349,1.631-2.48c0.141,0.057,0.253,0.266,0.072,0.627
	c0.582-0.237,1.041-0.612,1.152-0.851c0.11,0.212,0.277,0.28,0.778,0.419c-0.556-0.654,0.099-0.833,0.193-1.098
	c0.18-0.124,0.625-0.724,0.654-1.043c0.236-0.025,0.293,0.403,0.208,0.751c0,0,1.307-0.693,1.696-2.586
	c0.388-1.89-1.641-5.822-1.653-6.184c-0.015-0.361,0.234-0.348,0.541-0.111c0.305,0.236,0.39,0.778,0.39,0.778
	s0.112-0.653-0.071-0.931C27.646,13.442,27.993,13.735,28.284,14.138z M18.204,9.985c0,0-0.011-0.009-0.031-0.024
	c-0.32,0.229-2.914,2.056-3.172,1.483c-0.274-0.61-0.394-0.754-0.394-0.754c-0.168,0.431-0.229,0.91-0.624,0.754
	c-0.395-0.155-1.554-0.909-1.804-1.507c0.442-0.19,0.752-0.466,0.801-0.706c0.214,0.347,0.357,0.551,0.465,0.562
	c-0.047-0.203,0.108-0.55,0.072-0.562c-0.035-0.011,0.527-0.119,0.574-0.072c0.048,0.048-0.096,0.252,0.096,0.431
	c0.191,0.18,0.18-0.25,0.239-0.359c0.06-0.106,1.255-0.43,1.387-0.239c0.131,0.204,0.12,0.718,0.12,0.718s0.275,0.167,0.288-0.024
	c0.012-0.191,0.107-0.753,0.107-0.753s0.489,0.179,0.623,0.777c0.285-0.095,0.285-0.479,0.273-0.645
	c-0.013-0.168,0.347-0.275,0.431-0.132s-0.035,0.43,0.049,0.585c0.068,0.129,0.369,0.366,0.469,0.442
	c0.021-0.015,0.031-0.023,0.031-0.023V9.985z M16.027,28.674c-0.103-0.054-0.188-0.106-0.262-0.152
	C15.853,28.57,15.94,28.622,16.027,28.674z M21.983,26.165c0.122,0.174,0.285,0.348,0.505,0.508
	C22.242,26.513,22.078,26.339,21.983,26.165z M6.624,26.43c0.009,0.007,0.014,0.008,0.009,0.007
	C6.63,26.436,6.626,26.434,6.624,26.43z"/>
</svg>
